<?xml version="1.0" encoding="iso-8859-1"?>
<!-- Uploaded to: SVG Repo, www.svgrepo.com, Generator: SVG Repo Mixer Tools -->
<!DOCTYPE svg PUBLIC "-//W3C//DTD SVG 1.1//EN" "http://www.w3.org/Graphics/SVG/1.1/DTD/svg11.dtd">
<svg fill="#ffffff" height="80px" width="80px" version="1.1" id="Capa_1" xmlns="http://www.w3.org/2000/svg" xmlns:xlink="http://www.w3.org/1999/xlink" 
	 viewBox="0 0 370 370" xml:space="preserve">
<path d="M221.216,31.777C209.472,10.68,197.278,0,184.973,0c-0.001,0-0.003,0-0.006,0c-12.191,0-24.309,10.722-36.013,31.747
	c-31.026,55.734-50.181,166.609-27.263,203.571c13.299,21.447,34.021,28.994,49.278,31.507V342h-29.127
	c-4.415,0-7.873,3.454-7.873,7.863v12.295c0,4.397,3.458,7.842,7.873,7.842h87.092c4.506,0,8.036-3.444,8.036-7.842v-12.295
	c0-4.336-3.605-7.863-8.036-7.863H199.97v-75.26c20.734-3.578,37.881-14.645,48.278-31.413
	C271.213,198.292,252.182,87.404,221.216,31.777z"/>
</svg>