<?xml version="1.0" encoding="iso-8859-1"?>
<!-- Uploaded to: SVG Repo, www.svgrepo.com, Generator: SVG Repo Mixer Tools -->
<svg height="80px" width="80px" version="1.1" id="Layer_1" xmlns="http://www.w3.org/2000/svg" xmlns:xlink="http://www.w3.org/1999/xlink" 
	 viewBox="0 0 512 512" xml:space="preserve">
<ellipse style="fill:#fffff;" cx="200.1" cy="201.689" rx="87.946" ry="161.234"/>
<ellipse style="fill:#ffffff;" cx="160.146" cy="313.454" rx="94.228" ry="113.074"/>
<path d="M424.986,461.078h-33.416v-88.609c23.422-4.137,44.756-22.147,60.909-51.758c17.435-31.965,27.037-74.235,27.037-119.023
	s-9.602-87.058-27.037-119.023c-18.53-33.972-43.88-52.681-71.379-52.681c-27.499,0-52.848,18.709-71.379,52.681
	c-17.435,31.964-27.037,74.234-27.037,119.023s9.602,87.058,27.037,119.023c16.152,29.612,37.487,47.623,60.909,51.758v88.609
	H170.614v-24.696c52.833-6.218,94.228-58.974,94.228-122.928c0-68.122-46.967-123.543-104.698-123.543
	S55.447,245.332,55.447,313.454c0,63.952,41.395,116.709,94.228,122.928v24.696H87.014c-5.782,0-10.47,4.687-10.47,10.47
	s4.687,10.47,10.47,10.47h337.971c5.782,0,10.47-4.687,10.47-10.47S430.768,461.078,424.986,461.078z M303.623,201.687
	c0-81.723,35.48-150.765,77.476-150.765s77.476,69.042,77.476,150.765c0,74.83-29.748,139.016-67.007,149.314V240.922l30.087-30.088
	c4.088-4.088,4.088-10.718,0-14.806s-10.718-4.088-14.806,0l-15.281,15.281v-19.828c0-5.782-4.687-10.47-10.47-10.47
	c-5.782,0-10.47,4.687-10.47,10.47v159.52C333.371,340.701,303.623,276.516,303.623,201.687z M76.386,313.454
	c0-56.577,37.574-102.604,83.758-102.604s83.758,46.027,83.758,102.604c0,52.234-32.027,95.473-73.288,101.804v-44.77l30.087-30.088
	c4.088-4.088,4.088-10.718,0-14.806c-4.088-4.088-10.718-4.088-14.806,0l-25.75,25.75l-13.863-13.864
	c-4.088-4.088-10.718-4.088-14.806,0c-4.088,4.088-4.089,10.718,0,14.806l18.201,18.202v44.77
	C108.413,408.927,76.386,365.687,76.386,313.454z"/>
<path d="M54.471,461.078H10.47c-5.782,0-10.47,4.687-10.47,10.47s4.687,10.47,10.47,10.47h44.001c5.782,0,10.47-4.687,10.47-10.47
	S60.254,461.078,54.471,461.078z"/>
<path d="M501.53,461.078h-44.001c-5.782,0-10.47,4.687-10.47,10.47s4.687,10.47,10.47,10.47h44.001c5.782,0,10.47-4.687,10.47-10.47
	S507.313,461.078,501.53,461.078z"/>
<path d="M107.859,313.454c0-9.007,1.469-17.723,4.366-25.91c1.93-5.451-0.926-11.434-6.376-13.363
	c-5.45-1.93-11.433,0.926-13.363,6.376c-3.694,10.435-5.566,21.503-5.566,32.895c0,22.415,7.308,43.605,20.577,59.666
	c2.071,2.506,5.062,3.802,8.077,3.802c2.348,0,4.711-0.786,6.663-2.399c4.458-3.683,5.086-10.282,1.403-14.74
	C113.463,347.466,107.859,331.013,107.859,313.454z"/>
<path d="M127.228,248.308c-4.101-4.077-10.729-4.058-14.806,0.043c-0.904,0.909-1.808,1.865-2.688,2.843
	c-3.869,4.297-3.521,10.917,0.777,14.786c2.001,1.802,4.505,2.689,7.001,2.689c2.865,0,5.718-1.168,7.785-3.465
	c0.649-0.72,1.313-1.423,1.974-2.088C131.347,259.014,131.329,252.386,127.228,248.308z"/>
</svg>