<?xml version="1.0" encoding="iso-8859-1"?>
<!-- Uploaded to: SVG Repo, www.svgrepo.com, Generator: SVG Repo Mixer Tools -->
<svg fill="#ffffff" height="13px" width="13px" version="1.1" id="Layer_1" xmlns="http://www.w3.org/2000/svg" xmlns:xlink="http://www.w3.org/1999/xlink" 
	 viewBox="0 0 512 512" xml:space="preserve">
<g>
	<g>
		<path d="M256,0C114.62,0,0,114.611,0,256c0,141.38,114.62,256,256,256s256-114.62,256-256C512,114.611,397.38,0,256,0z M256,486.4
			C128.956,486.4,25.6,383.044,25.6,256S128.956,25.6,256,25.6S486.4,128.956,486.4,256S383.044,486.4,256,486.4z"/>
	</g>
</g>
<g>
	<g>
		<path d="M256,76.8c-98.97,0-179.2,80.23-179.2,179.2S157.03,435.2,256,435.2S435.2,354.97,435.2,256S354.97,76.8,256,76.8z
			 M268.8,103.049c58.078,4.821,107.102,41.993,128.811,93.483l-111.283,36.156c-4.463-5.803-10.496-10.24-17.528-12.74V103.049z
			 M256,243.2c7.057,0,12.8,5.743,12.8,12.8s-5.743,12.8-12.8,12.8s-12.8-5.743-12.8-12.8S248.943,243.2,256,243.2z M243.2,103.049
			v116.898c-7.023,2.5-13.056,6.946-17.527,12.74l-111.283-36.156C136.098,145.041,185.122,107.87,243.2,103.049z M102.4,256
			c0-12.083,1.544-23.791,4.198-35.081l111.104,36.096c0.205,7.689,2.603,14.814,6.682,20.727l-68.599,94.404
			C123.162,343.962,102.4,302.396,102.4,256z M256,409.6c-29.116,0-56.269-8.294-79.497-22.426l68.676-94.515
			c3.456,1.024,7.04,1.741,10.82,1.741c3.789,0,7.373-0.717,10.829-1.741l68.668,94.515C312.269,401.306,285.116,409.6,256,409.6z
			 M356.207,372.147l-68.591-94.413c4.079-5.914,6.468-13.039,6.673-20.727l111.104-36.096c2.662,11.298,4.207,23.006,4.207,35.089
			C409.6,302.396,388.838,343.962,356.207,372.147z"/>
	</g>
</g>
</svg>